<svg xmlns="http://www.w3.org/2000/svg" width="145.589" height="40" viewBox="0 0 145.589 40">
    <defs>
        <style>
            .prefix__cls-1{fill:#21243d}
        </style>
    </defs>
    <g id="prefix__Group_2131" data-name="Group 2131" transform="translate(-226.113 -155.291)">
        <g id="prefix__Group_2130" data-name="Group 2130" transform="translate(226.113 155.291)">
            <path id="prefix__Rectangle_2854" d="M320.9 242.067h-13.62a4.17 4.17 0 0 1-4.17-4.17 4.17 4.17 0 0 1 4.17-4.17h13.62a4.17 4.17 0 0 1 4.17 4.17 4.17 4.17 0 0 1-4.17 4.17z" class="prefix__cls-1" data-name="Rectangle 2854" transform="translate(-289.57 -219.932)"/>
            <path id="prefix__Rectangle_2913" d="M257.446 318.633h-27.163a4.17 4.17 0 0 1-4.17-4.17 4.17 4.17 0 0 1 4.17-4.17h27.163a4.17 4.17 0 0 1 4.17 4.17 4.17 4.17 0 0 1-4.17 4.17z" class="prefix__cls-1" data-name="Rectangle 2913" transform="translate(-226.113 -283.031)"/>
            <path id="prefix__Path_411" d="M461.913 310.565a4.146 4.146 0 1 1-4.146 4.146 4.146 4.146 0 0 1 4.146-4.146z" data-name="Path 411" transform="translate(-417.023 -283.256)" style="opacity:.997;isolation:isolate;fill:#21243d"/>
            <path id="prefix__Union_31" d="M393.734 173.081v-9.45h-9.45a4.17 4.17 0 0 1-4.17-4.169 4.17 4.17 0 0 1 4.169-4.17h17.791v17.79a4.17 4.17 0 0 1-4.17 4.17 4.17 4.17 0 0 1-4.17-4.17z" class="prefix__cls-1" data-name="Union 31" transform="translate(-353.028 -155.291)"/>
        </g>
        <g id="prefix__Group_2083" data-name="Group 2083" transform="translate(283.415 155.396)">
            <path id="prefix__Path_24" d="M559.517 171.719c-2.721 0-4.846-1.35-4.936-3.909h3.279a1.45 1.45 0 0 0 1.566 1.441c.9 0 1.478-.455 1.478-1.189 0-2.341-6.323-1.08-6.287-5.565 0-2.4 1.964-3.73 4.611-3.73 2.755 0 4.611 1.366 4.737 3.783h-3.339a1.368 1.368 0 0 0-1.459-1.314 1.12 1.12 0 0 0-1.3 1.152c0 2.2 6.252 1.214 6.252 5.441.009 2.122-1.649 3.89-4.602 3.89z" class="prefix__cls-1" data-name="Path 24" transform="translate(-554.115 -158.26)"/>
            <path id="prefix__Path_25" d="M618.162 155.886h3.079v4.629a3.7 3.7 0 0 1 3.1-1.46c2.288 0 3.819 1.586 3.819 4.288v5.872h-3.06v-5.463a1.937 1.937 0 1 0-3.855 0v5.463h-3.08z" class="prefix__cls-1" data-name="Path 25" transform="translate(-606.509 -155.886)"/>
            <path id="prefix__Path_26" d="M686.751 173.743a3.5 3.5 0 0 1 3.1 1.567v-1.43h3.078v10.052h-3.08v-1.423a3.56 3.56 0 0 1-3.115 1.567c-2.449 0-4.414-2.018-4.414-5.188s1.959-5.145 4.431-5.145zm.9 2.684a2.239 2.239 0 0 0-2.2 2.469 2.215 2.215 0 1 0 2.2-2.476z" class="prefix__cls-1" data-name="Path 26" transform="translate(-659.382 -170.603)"/>
            <path id="prefix__Path_27" d="M747.614 174.493h3.081l1.423 7.188 1.693-7.188h3.259l1.712 7.146 1.4-7.152h2.9l-2.72 10.052h-3.405l-1.585-6.524-1.639 6.524h-3.386z" class="prefix__cls-1" data-name="Path 27" transform="translate(-713.193 -171.216)"/>
            <path id="prefix__Path_28" d="M561.061 290.944H556.1l-.8 2.347h-3.387L556.726 280h3.748l4.81 13.291h-3.427zm-2.48-7.365l-1.627 4.866h3.269z" class="prefix__cls-1" data-name="Path 28" transform="translate(-551.916 -258.17)"/>
            <path id="prefix__Path_29" d="M632.674 297.606a4.6 4.6 0 0 1 4.828 3.783h-3.279a1.588 1.588 0 0 0-1.6-1.153c-1.1 0-1.856.865-1.856 2.54s.759 2.54 1.856 2.54a1.561 1.561 0 0 0 1.6-1.153h3.277a4.666 4.666 0 0 1-4.828 3.783 5.171 5.171 0 0 1 0-10.339z" class="prefix__cls-1" data-name="Path 29" transform="translate(-614.314 -272.68)"/>
            <path id="prefix__Path_30" d="M694.224 297.606a3.5 3.5 0 0 1 3.1 1.568v-1.423h3.08V307.8h-3.08v-1.423a3.553 3.553 0 0 1-3.117 1.567c-2.449 0-4.412-2.017-4.412-5.188s1.963-5.15 4.429-5.15zm.9 2.684a2.238 2.238 0 0 0-2.2 2.467 2.216 2.216 0 1 0 4.4.018 2.244 2.244 0 0 0-2.2-2.485z" class="prefix__cls-1" data-name="Path 30" transform="translate(-665.544 -272.68)"/>
            <path id="prefix__Path_31" d="M762.493 282.918a3.674 3.674 0 0 1 3.1 1.531v-4.665h3.076v13.329h-3.081v-1.442a3.473 3.473 0 0 1-3.1 1.586c-2.467 0-4.43-2.016-4.43-5.187s1.968-5.152 4.435-5.152zm.9 2.684a2.237 2.237 0 0 0-2.2 2.467 2.216 2.216 0 1 0 4.4.018 2.24 2.24 0 0 0-2.199-2.487z" class="prefix__cls-1" data-name="Path 31" transform="translate(-721.8 -257.992)"/>
            <path id="prefix__Path_32" d="M831.452 307.945a5.17 5.17 0 0 1 0-10.339 4.736 4.736 0 0 1 5.007 5.007 7.746 7.746 0 0 1-.055.9h-6.97a1.858 1.858 0 0 0 1.908 1.927 1.638 1.638 0 0 0 1.6-.972h3.279a4.7 4.7 0 0 1-4.769 3.477zm-2-6.142h3.858a1.738 1.738 0 0 0-1.89-1.73 1.9 1.9 0 0 0-1.968 1.727z" class="prefix__cls-1" data-name="Path 32" transform="translate(-778.1 -272.68)"/>
            <path id="prefix__Path_33" d="M905.349 302.529a1.931 1.931 0 1 0-3.856 0v5.462h-3.062v-5.462a1.931 1.931 0 1 0-3.856 0v5.462H891.5v-10.054h3.08v1.263a3.542 3.542 0 0 1 2.936-1.366 3.752 3.752 0 0 1 3.423 1.874 4.043 4.043 0 0 1 3.387-1.874c2.485 0 4.1 1.585 4.1 4.288v5.872h-3.069z" class="prefix__cls-1" data-name="Path 33" transform="translate(-831.77 -272.866)"/>
            <path id="prefix__Path_34" d="M997.122 298.418h3.337l-6.3 14.824h-3.315l2.306-5.115-4.089-9.711h3.439l2.324 6.286z" class="prefix__cls-1" data-name="Path 34" transform="translate(-912.173 -273.347)"/>
        </g>
    </g>
</svg>
